<svg xmlns="http://www.w3.org/2000/svg" width="375" viewBox="0 0 375 375" height="375" version="1.0"><defs><clipPath id="a"><path d="M 44 144 L 95 144 L 95 194 L 44 194 Z M 44 144"/></clipPath><clipPath id="b"><path d="M 157.167969 115.367188 L 117.765625 260.101562 L 24.414062 234.6875 L 63.816406 89.953125 Z M 157.167969 115.367188"/></clipPath><clipPath id="c"><path d="M 157.167969 115.367188 L 117.765625 260.101562 L 24.414062 234.6875 L 63.816406 89.953125 Z M 157.167969 115.367188"/></clipPath><clipPath id="d"><path d="M 94 130 L 145 130 L 145 181 L 94 181 Z M 94 130"/></clipPath><clipPath id="e"><path d="M 157.167969 115.367188 L 117.765625 260.101562 L 24.414062 234.6875 L 63.816406 89.953125 Z M 157.167969 115.367188"/></clipPath><clipPath id="f"><path d="M 157.167969 115.367188 L 117.765625 260.101562 L 24.414062 234.6875 L 63.816406 89.953125 Z M 157.167969 115.367188"/></clipPath><clipPath id="g"><path d="M 58 93 L 109 93 L 109 144 L 58 144 Z M 58 93"/></clipPath><clipPath id="h"><path d="M 157.167969 115.367188 L 117.765625 260.101562 L 24.414062 234.6875 L 63.816406 89.953125 Z M 157.167969 115.367188"/></clipPath><clipPath id="i"><path d="M 157.167969 115.367188 L 117.765625 260.101562 L 24.414062 234.6875 L 63.816406 89.953125 Z M 157.167969 115.367188"/></clipPath><clipPath id="j"><path d="M 30 195 L 81 195 L 81 245 L 30 245 Z M 30 195"/></clipPath><clipPath id="k"><path d="M 157.167969 115.367188 L 117.765625 260.101562 L 24.414062 234.6875 L 63.816406 89.953125 Z M 157.167969 115.367188"/></clipPath><clipPath id="l"><path d="M 157.167969 115.367188 L 117.765625 260.101562 L 24.414062 234.6875 L 63.816406 89.953125 Z M 157.167969 115.367188"/></clipPath><clipPath id="m"><path d="M 80 181 L 131 181 L 131 232 L 80 232 Z M 80 181"/></clipPath><clipPath id="n"><path d="M 157.167969 115.367188 L 117.765625 260.101562 L 24.414062 234.6875 L 63.816406 89.953125 Z M 157.167969 115.367188"/></clipPath><clipPath id="o"><path d="M 157.167969 115.367188 L 117.765625 260.101562 L 24.414062 234.6875 L 63.816406 89.953125 Z M 157.167969 115.367188"/></clipPath></defs><path fill="#FFF" d="M-37.5 -37.5H412.5V412.5H-37.5z"/><path fill="#FFF" d="M-37.5 -37.5H412.5V412.5H-37.5z"/><path fill="#F2CB13" d="M-37.5 -37.5H412.5V412.5H-37.5z"/><g clip-path="url(#a)"><g clip-path="url(#b)"><g clip-path="url(#c)"><path d="M 87.59375 150.949219 L 62.683594 144.164062 L 44.375 162.320312 L 50.960938 187.214844 L 75.875 193.996094 L 94.179688 175.878906 Z M 87.59375 150.949219"/></g></g></g><g clip-path="url(#d)"><g clip-path="url(#e)"><g clip-path="url(#f)"><path d="M 125.726562 180.710938 L 144.042969 162.59375 L 137.445312 137.664062 L 112.53125 130.878906 L 94.230469 149.035156 L 100.8125 173.929688 Z M 125.726562 180.710938"/></g></g></g><g clip-path="url(#g)"><g clip-path="url(#h)"><g clip-path="url(#i)"><path d="M 101.414062 100.191406 L 76.5 93.40625 L 58.199219 111.539062 L 64.785156 136.441406 L 89.695312 143.222656 L 108.003906 125.097656 Z M 101.414062 100.191406"/></g></g></g><g clip-path="url(#j)"><g clip-path="url(#k)"><g clip-path="url(#l)"><path d="M 80.308594 226.832031 L 73.722656 201.902344 L 48.808594 195.121094 L 30.503906 213.273438 L 37.089844 238.167969 L 62.003906 244.953125 Z M 40.640625 234.652344 L 35.332031 214.585938 L 50.089844 199.949219 L 70.171875 205.417969 L 75.480469 225.515625 L 60.726562 240.121094 Z M 40.640625 234.652344"/></g></g></g><g clip-path="url(#m)"><g clip-path="url(#n)"><g clip-path="url(#o)"><path d="M 111.855469 231.667969 L 130.171875 213.550781 L 123.574219 188.617188 L 98.660156 181.832031 L 80.359375 199.988281 L 86.941406 224.882812 Z M 90.492188 221.367188 L 85.1875 201.300781 L 99.941406 186.664062 L 120.023438 192.132812 L 125.339844 212.234375 L 110.578125 226.835938 Z M 90.492188 221.367188"/></g></g></g><g><g><g><path d="M 22.140625 1.34375 L 2.859375 1.34375 L 2.859375 -39.15625 L 23.59375 -39.15625 L 23.59375 -30.515625 L 11.5 -30.515625 L 11.5 -23.65625 L 19.328125 -23.65625 L 18.84375 -21.921875 L 17.171875 -16.25 L 16.90625 -15.28125 L 11.5 -15.28125 L 11.5 -6.75 L 23.484375 -6.75 L 23.484375 1.34375 Z M 22.140625 1.34375" transform="translate(167.127 174.75)"/></g></g></g><g><g><g><path d="M 22.140625 1.34375 L 2.859375 1.34375 L 2.859375 -39.15625 L 23.59375 -39.15625 L 23.59375 -30.515625 L 11.5 -30.515625 L 11.5 -23.65625 L 19.328125 -23.65625 L 18.84375 -21.921875 L 17.171875 -16.25 L 16.90625 -15.28125 L 11.5 -15.28125 L 11.5 -6.75 L 23.484375 -6.75 L 23.484375 1.34375 Z M 22.140625 1.34375" transform="translate(192.237 174.75)"/></g></g></g><g><g><g><path d="M 13.71875 1.34375 L 6.421875 1.34375 L 6.421875 -30.453125 L -1.34375 -30.453125 L -1.34375 -39.15625 L 23.0625 -39.15625 L 23.0625 -30.453125 L 15.0625 -30.453125 L 15.0625 1.34375 Z M 13.71875 1.34375" transform="translate(217.347 174.75)"/></g></g></g><g><g><g><path d="M 27.96875 1.34375 L 19.8125 1.34375 L 19.59375 0.265625 L 17.59375 -8.53125 L 11.0625 -8.53125 L 9.171875 0.265625 L 8.953125 1.34375 L -0.546875 1.34375 L -0.109375 -0.328125 L 8.734375 -38.125 L 8.953125 -39.15625 L 19.4375 -39.15625 L 19.703125 -38.125 L 29.265625 -0.328125 L 29.6875 1.34375 Z M 15.546875 -17.546875 L 14.25 -22.359375 L 13.109375 -17.546875 Z M 15.546875 -17.546875" transform="translate(239.055 174.75)"/></g></g></g><g><g><g><path d="M 12.5625 0 L 12.4375 -12.375 L 9.25 -1.5625 L 6.828125 -1.5625 L 3.640625 -12.375 L 3.515625 0 L 1.609375 0 L 1.75 -15.0625 L 4.640625 -15.0625 L 8.046875 -3.3125 L 11.4375 -15.0625 L 14.328125 -15.0625 L 14.46875 0 Z M 12.5625 0" transform="translate(152.308 207.7)"/></g></g></g><g><g><g><path d="M 7.3125 -15.0625 L 11.9375 0 L 9.828125 0 L 8.828125 -3.5 L 3.28125 -3.5 L 2.296875 0 L 0.296875 0 L 4.90625 -15.0625 Z M 6.078125 -13.265625 L 3.765625 -5.25 L 8.34375 -5.25 Z M 6.078125 -13.265625" transform="translate(171.277 207.7)"/></g></g></g><g><g><g><path d="M 11.484375 -15.0625 L 5.703125 -7.78125 L 12.078125 0 L 9.5625 0 L 3.6875 -7.390625 L 3.6875 0 L 1.71875 0 L 1.71875 -15.0625 L 3.6875 -15.0625 L 3.6875 -7.796875 L 9.296875 -15.0625 Z M 11.484375 -15.0625" transform="translate(186.407 207.7)"/></g></g></g><g><g><g><path d="M 9.65625 -15.0625 L 9.65625 -13.296875 L 3.6875 -13.296875 L 3.6875 -8.53125 L 9.203125 -8.53125 L 9.203125 -6.78125 L 3.6875 -6.78125 L 3.6875 -1.765625 L 9.65625 -1.765625 L 9.65625 0 L 1.71875 0 L 1.71875 -15.0625 Z M 9.65625 -15.0625" transform="translate(201.376 207.7)"/></g></g></g><g><g><g><path d="M 3.6875 -15.0625 L 3.6875 0 L 1.71875 0 L 1.71875 -15.0625 Z M 3.6875 -15.0625" transform="translate(222.462 207.7)"/></g></g></g><g><g><g><path d="M 11.390625 -15.0625 L 11.390625 -13.296875 L 7.015625 -13.296875 L 7.015625 0 L 5.0625 0 L 5.0625 -13.296875 L 0.6875 -13.296875 L 0.6875 -15.0625 Z M 11.390625 -15.0625" transform="translate(230.763 207.7)"/></g></g></g><g><g><g><path d="M 11.609375 -15.0625 L 11.609375 0 L 9.65625 0 L 9.65625 -6.90625 L 3.6875 -6.90625 L 3.6875 0 L 1.71875 0 L 1.71875 -15.0625 L 3.6875 -15.0625 L 3.6875 -8.640625 L 9.65625 -8.640625 L 9.65625 -15.0625 Z M 11.609375 -15.0625" transform="translate(252.768 207.7)"/></g></g></g><g><g><g><path d="M 7.3125 -15.0625 L 11.9375 0 L 9.828125 0 L 8.828125 -3.5 L 3.28125 -3.5 L 2.296875 0 L 0.296875 0 L 4.90625 -15.0625 Z M 6.078125 -13.265625 L 3.765625 -5.25 L 8.34375 -5.25 Z M 6.078125 -13.265625" transform="translate(269.002 207.7)"/></g></g></g><g><g><g><path d="M 5.703125 -15.34375 C 7.515625 -15.34375 8.859375 -14.976562 9.734375 -14.25 C 10.617188 -13.519531 11.0625 -12.476562 11.0625 -11.125 L 11.0625 -10.578125 C 11.0625 -9.140625 10.628906 -8.03125 9.765625 -7.25 C 8.910156 -6.46875 7.617188 -6.078125 5.890625 -6.078125 C 5.203125 -6.078125 4.46875 -6.132812 3.6875 -6.25 L 3.6875 0 L 1.71875 0 L 1.71875 -15.21875 C 3.03125 -15.300781 4.359375 -15.34375 5.703125 -15.34375 Z M 5.65625 -13.6875 C 4.976562 -13.6875 4.320312 -13.671875 3.6875 -13.640625 L 3.6875 -7.9375 C 4.601562 -7.8125 5.304688 -7.75 5.796875 -7.75 C 8.003906 -7.75 9.109375 -8.722656 9.109375 -10.671875 L 9.109375 -11.0625 C 9.109375 -11.9375 8.832031 -12.59375 8.28125 -13.03125 C 7.726562 -13.46875 6.851562 -13.6875 5.65625 -13.6875 Z M 5.65625 -13.6875" transform="translate(284.132 207.7)"/></g></g></g><g><g><g><path d="M 5.703125 -15.34375 C 7.515625 -15.34375 8.859375 -14.976562 9.734375 -14.25 C 10.617188 -13.519531 11.0625 -12.476562 11.0625 -11.125 L 11.0625 -10.578125 C 11.0625 -9.140625 10.628906 -8.03125 9.765625 -7.25 C 8.910156 -6.46875 7.617188 -6.078125 5.890625 -6.078125 C 5.203125 -6.078125 4.46875 -6.132812 3.6875 -6.25 L 3.6875 0 L 1.71875 0 L 1.71875 -15.21875 C 3.03125 -15.300781 4.359375 -15.34375 5.703125 -15.34375 Z M 5.65625 -13.6875 C 4.976562 -13.6875 4.320312 -13.671875 3.6875 -13.640625 L 3.6875 -7.9375 C 4.601562 -7.8125 5.304688 -7.75 5.796875 -7.75 C 8.003906 -7.75 9.109375 -8.722656 9.109375 -10.671875 L 9.109375 -11.0625 C 9.109375 -11.9375 8.832031 -12.59375 8.28125 -13.03125 C 7.726562 -13.46875 6.851562 -13.6875 5.65625 -13.6875 Z M 5.65625 -13.6875" transform="translate(298.779 207.7)"/></g></g></g><g><g><g><path d="M 9.65625 -15.0625 L 9.65625 -13.296875 L 3.6875 -13.296875 L 3.6875 -8.53125 L 9.203125 -8.53125 L 9.203125 -6.78125 L 3.6875 -6.78125 L 3.6875 -1.765625 L 9.65625 -1.765625 L 9.65625 0 L 1.71875 0 L 1.71875 -15.0625 Z M 9.65625 -15.0625" transform="translate(313.426 207.7)"/></g></g></g><g><g><g><path d="M 8.625 0 L 3.65625 -12.71875 L 3.65625 0 L 1.71875 0 L 1.71875 -15.0625 L 4.859375 -15.0625 L 9.734375 -2.34375 L 9.734375 -15.0625 L 11.65625 -15.0625 L 11.65625 0 Z M 8.625 0" transform="translate(327.475 207.7)"/></g></g></g></svg>